<svg xmlns="http://www.w3.org/2000/svg" xmlns:xlink="http://www.w3.org/1999/xlink" width="57" height="57.97" viewBox="0 0 57 57.97">
  <defs>
    <style>
      .cls-1 {
        fill: #fff;
        fill-rule: evenodd;
        filter: url(#filter);
      }
    </style>
    <filter id="filter" x="2649" y="3533.03" width="57" height="57.97" filterUnits="userSpaceOnUse">
      <feOffset result="offset" dy="2" in="SourceAlpha"/>
      <feGaussianBlur result="blur" stdDeviation="1.414"/>
      <feFlood result="flood" flood-opacity="0.25"/>
      <feComposite result="composite" operator="in" in2="blur"/>
      <feBlend result="blend" in="SourceGraphic"/>
      <feFlood result="flood-2" flood-color="#fff"/>
      <feComposite result="composite-2" operator="in" in2="SourceGraphic"/>
      <feBlend result="blend-2" in2="blend"/>
    </filter>
  </defs>
  <path id="google_plus_" data-name="google plus " class="cls-1" d="M2677.25,3568.64c-0.1.16,0.46,4.05-6.01,4.29-6.96-.12-7.1-4.46-7.1-4.86-0.03-4.52,6.16-4.75,7.76-4.8C2673.27,3563.44,2677.2,3565.69,2677.25,3568.64Zm-6.32-11.71c5.37,0,4-5.92,4-5.92s-1.3-5.74-5.08-5.33c-4.85.05-3.51,6.02-3.51,6.02S2667.48,3556.75,2670.93,3556.93Zm-0.31,1.02c-0.77.06-.96,0.04-1.29,0.06a6.369,6.369,0,0,1-6.63-6.28,7.051,7.051,0,0,1,2.51-5.33c1.25-1.06,3.14-2.14,7.27-2.14h8.33l-2.6,1.43h-2.52a6.492,6.492,0,0,1,2.93,5.33c0,4.7-4.54,5.23-4.54,7.66-0.01,1.33,1.49,1.87,2.51,2.79a6.5,6.5,0,0,1,3.15,5.55c0,3.76-3.5,7.51-10.43,7.58,0.03,0.04-8.61.16-8.89-5.72,0,0.04-.39-2.63,3.32-4.87,2.29-1.49,5.32-1.62,7.68-1.85a3.825,3.825,0,0,1-1.2-2.69A3.744,3.744,0,0,1,2670.62,3557.95Zm15.93-13.89h2.54v9.99h-2.54v-9.99Zm-3.8,3.75h10.14v2.5h-10.14v-2.5Zm-5.78-14.79a26.563,26.563,0,1,1-26.96,26.56A26.761,26.761,0,0,1,2676.97,3533.02Z" transform="translate(-2649 -3533.03)"/>
</svg>
