<svg xmlns="http://www.w3.org/2000/svg" xmlns:xlink="http://www.w3.org/1999/xlink" width="57" height="57.5" viewBox="0 0 57 57.5">
  <defs>
    <style>
      .cls-1 {
        fill: #fff;
        fill-rule: evenodd;
        filter: url(#filter);
      }
    </style>
    <filter id="filter" x="2649" y="3453.5" width="57" height="57.5" filterUnits="userSpaceOnUse">
      <feOffset result="offset" dy="2" in="SourceAlpha"/>
      <feGaussianBlur result="blur" stdDeviation="1.414"/>
      <feFlood result="flood" flood-opacity="0.25"/>
      <feComposite result="composite" operator="in" in2="blur"/>
      <feBlend result="blend" in="SourceGraphic"/>
    </filter>
  </defs>
  <path id="twitter" class="cls-1" d="M2676.44,3476.9c-10.94-7.27-11.67-5.87-11.67-5.85-0.85,1.89,2.48,4.28,2.48,4.28l-0.96.03s-1.39-.05-1.09.94a6.38,6.38,0,0,0,1.98,2.57,2.785,2.785,0,0,0,1.84.02s-1.08.56-1.76,0.98c-1.13.72-.32,1.35-0.2,1.47a5.4,5.4,0,0,0,3.78,1.45,5.7,5.7,0,0,0-1.08,1.75,1.815,1.815,0,0,0,.77,1.33,3.654,3.654,0,0,0,1.6.48c-5.92,6.18-13.05-.03-13.05-0.06,0.79,4.53,7.55,8.9,19.44,7.21,9.64-1.51,12.72-11.91,12.72-11.91s3.99,0.22,4.43-2.12a9.842,9.842,0,0,1-3.04-.14s3.07-1.3,3.21-2.87a6.916,6.916,0,0,1-4.54.98c-2.08-7.14-7.08-7.14-7.08-7.14s2.12-1.19,2.06-1.91c-0.65-.46-1.96.46-2.07,0.46a0.743,0.743,0,0,0-.3-1.12,2.294,2.294,0,0,0-1.18,1.2,1.132,1.132,0,0,0-.6-0.56C2678.78,3469.27,2676.43,3476.89,2676.44,3476.9Zm0.53-23.39a26.563,26.563,0,1,1-26.96,26.56A26.761,26.761,0,0,1,2676.97,3453.51Z" transform="translate(-2649 -3453.5)"/>
</svg>
