<?xml version="1.0" encoding="utf-8"?>
<!-- Generator: Adobe Illustrator 21.0.2, SVG Export Plug-In . SVG Version: 6.00 Build 0)  -->
<svg version="1.1" id="Layer_1" xmlns="http://www.w3.org/2000/svg" xmlns:xlink="http://www.w3.org/1999/xlink" x="0px" y="0px"
	 viewBox="0 0 20 20" style="enable-background:new 0 0 20 20;" xml:space="preserve">
<style type="text/css">
	.st0{fill:#FFFFFF;}
	.st1{fill:none;}
</style>
<g>
	<rect x="0" y="7.3" width="20" height="12.7"/>
	<polygon points="0,7.3 18.8,0 19.3,1.4 0.5,8.7 	"/>
	<rect x="0" y="7.3" class="st0" width="20" height="0.8"/>
	<rect x="0" y="7.3" width="2" height="2.1"/>
	<rect x="2" y="7.3" class="st1" width="2" height="2.1"/>
	<rect x="4" y="7.3" width="2" height="0.8"/>
	<rect x="0" y="8.1" class="st0" width="2" height="0.8"/>
	<rect x="4" y="8.1" class="st0" width="2" height="0.8"/>
	<rect x="6" y="7.3" class="st1" width="2" height="2.1"/>
	<rect x="8" y="7.3" width="2" height="2.1"/>
	<rect x="10" y="7.3" class="st1" width="2" height="2.1"/>
	<rect x="12" y="7.3" width="2" height="2.1"/>
	<rect x="14" y="7.3" class="st1" width="2" height="2.1"/>
	<rect x="16" y="7.3" width="2" height="2.1"/>
	<rect x="8" y="8.1" class="st0" width="2" height="0.8"/>
	<rect x="12" y="8.1" class="st0" width="2" height="0.8"/>
	<rect x="16" y="8.1" class="st0" width="2" height="0.8"/>
</g>
</svg>
