<?xml version="1.0" encoding="utf-8"?>
<!-- Generator: Adobe Illustrator 21.0.2, SVG Export Plug-In . SVG Version: 6.00 Build 0)  -->
<svg version="1.1" id="Layer_1" xmlns="http://www.w3.org/2000/svg" xmlns:xlink="http://www.w3.org/1999/xlink" x="0px" y="0px"
	 viewBox="0 0 20.1 20" style="enable-background:new 0 0 20.1 20;" xml:space="preserve">
<style type="text/css">
	.st0{fill:#9E9D9D;}
	.st1{fill:none;stroke:#515151;stroke-miterlimit:10;}
	.st2{fill:none;stroke:#353434;stroke-width:0.75;stroke-miterlimit:10;}
	.st3{fill:none;stroke:#353434;stroke-width:0.5;stroke-miterlimit:10;}
	.st4{fill:#353434;stroke:#353434;stroke-width:0.75;stroke-miterlimit:10;}
	.st5{fill:#111111;stroke:#111111;stroke-miterlimit:10;}
</style>
<rect x="0.1" class="st0" width="20" height="20"/>
<line class="st1" x1="0.1" y1="4" x2="20.1" y2="4"/>
<line class="st1" x1="0.1" y1="8" x2="20.1" y2="8"/>
<line class="st1" x1="0.1" y1="12" x2="20.1" y2="12"/>
<line class="st1" x1="0.1" y1="16" x2="20.1" y2="16"/>
<path class="st2" d="M1,1.4c0,0,2,0.2,4.8,0.7s1.5-0.2,4.3-0.7s3.7,1.1,5.9,0.7s1.5-1.2,2.8-1"/>
<path class="st2" d="M0.9,6.8C2.5,6.1,2.8,5.2,5.7,6S9.8,7.5,12,6.6s2.3-1.9,4.6-0.9"/>
<path class="st3" d="M0.9,10.2c1.4-1,3.7-0.8,4.5-0.2c0.8,0.5,3.5,0.4,4.2-0.6c0.7-1,1.8,0.4,2.1,0.8"/>
<path class="st4" d="M16.9,5.7l-0.4-0.2c-0.1,0-0.3,0-0.4,0l-3.7,3.4c0,0.1-0.1,0.2,0,0.3l0.4,0.2c0.1,0,0.1-0.1,0.3-0.1
	c0.1,0,0.1,0,0.2-0.1L17,5.9C17,5.8,17,5.7,16.9,5.7z"/>
<polygon class="st5" points="12.6,8.7 12.3,9.5 13.4,9.1 "/>
</svg>
