<?xml version="1.0" encoding="utf-8"?>
<!-- Generator: Adobe Illustrator 21.0.2, SVG Export Plug-In . SVG Version: 6.00 Build 0)  -->
<svg version="1.1" id="Layer_1" xmlns="http://www.w3.org/2000/svg" xmlns:xlink="http://www.w3.org/1999/xlink" x="0px" y="0px"
	 viewBox="0 0 20 20" style="enable-background:new 0 0 20 20;" xml:space="preserve">
<style type="text/css">
	.st0{fill:none;stroke:#000000;stroke-miterlimit:10;}
	.st1{fill:#FFFFFF;}
</style>
<g>
	<ellipse transform="matrix(0.9747 -0.2235 0.2235 0.9747 -1.5775 1.4598)" class="st0" cx="5.7" cy="7.7" rx="5" ry="6.8"/>
	<path d="M4.2,1.1l0.3,1.2l1,0.9c0,0-1.7,6.7-0.2,6s1.5-0.7,1.5-0.7S5.8,10,6.2,10c0.4,0,2.5-1.8,3.1-1.1c0.6,0.7-2.7,3-2.7,3
		s-0.3-0.1-0.3,0.5c0.3,0.4,0.5,0.1,0.5,0.1l0.3,1.9c0,0,4.3-0.5,3.4-7.7C8.5-0.5,4.2,1.1,4.2,1.1z"/>
	<path class="st1" d="M9.4,4.7c0.1,0.3-0.7,0.2-1.5,0.3C7,5.3,6.4,5.8,6.3,5.4C6.3,5.1,6.8,4.1,7.6,3.9S9.3,4.4,9.4,4.7z"/>
	<path d="M4.4,5.7c0.1,0.3-0.7,0.2-1.5,0.3C2.1,6.3,1.4,6.8,1.4,6.4C1.3,6.1,1.8,5.1,2.6,4.9C3.5,4.7,4.3,5.4,4.4,5.7z"/>
	<g>
		<path d="M4.2,4.7C3.6,4.6,3,4.3,2.4,4.1l0.1,0C2.2,4.5,1.8,4.9,1.4,5.2C1.7,4.7,2,4.3,2.3,3.9l0.1-0.1l0.1,0
			C3.1,4.1,3.6,4.4,4.2,4.7z"/>
	</g>
</g>
<g>
	<ellipse transform="matrix(0.2081 -0.9781 0.9781 0.2081 -0.7593 23.962)" class="st0" cx="14.4" cy="12.4" rx="6.8" ry="5"/>
	<path d="M15.8,5.8L15.6,7l0.5,1.2c0,0-4.4,5.3-2.7,5.3s1.6,0,1.6,0s-1.5,1-1.1,1.2s2.3,1.3,2.5,2.2s-2.9-0.3-2.9-0.3
		s-0.3-0.2-0.4,0.3c0.1,0.5,0.5,0.3,0.5,0.3L13,19.1c0,0,4.1,1.4,6.3-5.6C20.5,6.2,15.8,5.8,15.8,5.8z"/>
	<path class="st1" d="M19,11.3c-0.1,0.3-0.7-0.1-1.5-0.3c-0.8-0.2-1.6,0-1.5-0.3c0.1-0.3,0.9-1,1.8-0.8C18.6,10,19.1,11,19,11.3z"/>
	<path d="M14.1,10.1c-0.1,0.3-0.7-0.1-1.5-0.3c-0.8-0.2-1.6,0-1.5-0.3c0.1-0.3,0.9-1,1.8-0.8S14.2,9.8,14.1,10.1z"/>
	<g>
		<path d="M14.3,9.1c-0.5-0.4-1-0.9-1.4-1.3l0.1,0c-0.5,0.2-1,0.4-1.5,0.6C12,8.1,12.5,7.8,13,7.6l0.1,0l0.1,0.1
			C13.6,8.1,14,8.6,14.3,9.1z"/>
	</g>
</g>
</svg>
