<?xml version="1.0" encoding="utf-8"?>
<!-- Generator: Adobe Illustrator 21.0.2, SVG Export Plug-In . SVG Version: 6.00 Build 0)  -->
<svg version="1.1" id="Layer_1" xmlns="http://www.w3.org/2000/svg" xmlns:xlink="http://www.w3.org/1999/xlink" x="0px" y="0px"
	 viewBox="0 0 20 13.2" style="enable-background:new 0 0 20 13.2;" xml:space="preserve">
<style type="text/css">
	.st0{fill:#A3A2A2;}
	.st1{fill:#FFFFFF;}
	.st2{fill:none;stroke:#000000;stroke-width:0.1;stroke-miterlimit:10;}
	.st3{fill:none;stroke:#E01E00;stroke-width:0.25;stroke-miterlimit:10;}
</style>
<rect class="st0" width="20" height="6.6"/>
<rect y="6.6" class="st1" width="20" height="6.6"/>
<line class="st2" x1="4" y1="3.3" x2="16" y2="3.3"/>
<path class="st2" d="M16,9.9"/>
<path class="st2" d="M4,9.9"/>
<line class="st2" x1="4" y1="9.9" x2="16" y2="9.9"/>
<g>
	<path class="st3" d="M2.5,1.3c0.5,0,0.5,4,1.1,4c0.5,0,0.5-4,1.1-4c0.5,0,0.5,4,1.1,4c0.5,0,0.5-4,1.1-4c0.5,0,0.5,4,1.1,4
		c0.5,0,0.5-4,1.1-4c0.5,0,0.5,4,1.1,4c0.5,0,0.5-4,1.1-4c0.5,0,0.5,4,1.1,4c0.5,0,0.5-4,1.1-4c0.5,0,0.5,4,1.1,4c0.5,0,0.5-4,1.1-4
		c0.5,0,0.5,4,1.1,4c0.5,0,0.5-4,1.1-4"/>
</g>
<g>
	<path class="st3" d="M2.5,7.9c0.5,0,0.5,4,1.1,4c0.5,0,0.5-4,1.1-4c0.5,0,0.5,4,1.1,4c0.5,0,0.5-4,1.1-4c0.5,0,0.5,4,1.1,4
		c0.5,0,0.5-4,1.1-4c0.5,0,0.5,4,1.1,4c0.5,0,0.5-4,1.1-4c0.5,0,0.5,4,1.1,4c0.5,0,0.5-4,1.1-4c0.5,0,0.5,4,1.1,4c0.5,0,0.5-4,1.1-4
		c0.5,0,0.5,4,1.1,4c0.5,0,0.5-4,1.1-4"/>
</g>
</svg>
