<?xml version="1.0" encoding="utf-8"?>
<!-- Generator: Adobe Illustrator 21.0.2, SVG Export Plug-In . SVG Version: 6.00 Build 0)  -->
<svg version="1.1" id="Layer_1" xmlns="http://www.w3.org/2000/svg" xmlns:xlink="http://www.w3.org/1999/xlink" x="0px" y="0px"
	 viewBox="0 0 331.4 452.1" style="enable-background:new 0 0 331.4 452.1;" xml:space="preserve">
<style type="text/css">
	.st0{fill:#727171;}
	.st1{fill:#FF0000;}
	.st2{fill:none;stroke:#9E9E9E;stroke-width:8;stroke-miterlimit:10;}
</style>
<path d="M198.4,201.5l-38-23.7c-5.6-3.5-13-1.8-16.5,3.9L1.8,410.1c-3.5,5.6-1.8,13,3.9,16.5l38,23.7c5.6,3.5,13,1.8,16.5-3.9
	l142-228.4C205.7,212.5,204,205,198.4,201.5z"/>
<circle class="st0" cx="213.4" cy="117.9" r="117.9"/>
<circle class="st1" cx="132.7" cy="263.7" r="7.3"/>
<path class="st2" d="M308.3,188l0.8-1c0.4-0.5,0.3-1.3-0.3-1.7L120,48c-0.5-0.4-1.3-0.3-1.7,0.3l-0.8,1c-0.4,0.5-0.3,1.3,0.3,1.7
	l188.8,137.2C307.1,188.7,307.9,188.6,308.3,188z"/>
</svg>
