<?xml version="1.0" encoding="utf-8"?>
<!-- Generator: Adobe Illustrator 21.0.2, SVG Export Plug-In . SVG Version: 6.00 Build 0)  -->
<svg version="1.1" id="Layer_1" xmlns="http://www.w3.org/2000/svg" xmlns:xlink="http://www.w3.org/1999/xlink" x="0px" y="0px"
	 viewBox="0 0 20 20" style="enable-background:new 0 0 20 20;" xml:space="preserve">
<style type="text/css">
	.st0{fill:#7F7F7F;}
	.st1{fill:#282828;}
	.st2{fill:#FFFFFF;}
	.st3{fill:#F90000;}
</style>
<g>
	<rect y="3.1" class="st0" width="20" height="16.9"/>
	<rect class="st1" width="20" height="3.1"/>
	<ellipse class="st2" cx="10" cy="6.3" rx="1.3" ry="2"/>
	<ellipse class="st2" cx="10" cy="11.6" rx="1.3" ry="2"/>
	<ellipse class="st2" cx="10" cy="16.8" rx="1.3" ry="2"/>
	<ellipse class="st2" cx="6.1" cy="6.3" rx="1.3" ry="2"/>
	<ellipse class="st2" cx="6.1" cy="11.6" rx="1.3" ry="2"/>
	<ellipse class="st2" cx="6.1" cy="16.8" rx="1.3" ry="2"/>
	<ellipse class="st2" cx="2.3" cy="6.3" rx="1.3" ry="2"/>
	<ellipse class="st2" cx="2.3" cy="11.6" rx="1.3" ry="2"/>
	<ellipse class="st2" cx="2.3" cy="16.8" rx="1.3" ry="2"/>
	<ellipse class="st2" cx="14" cy="6.3" rx="1.3" ry="2"/>
	<ellipse class="st2" cx="14" cy="11.6" rx="1.3" ry="2"/>
	<ellipse class="st2" cx="14" cy="16.8" rx="1.3" ry="2"/>
	<ellipse class="st3" cx="17.7" cy="6.3" rx="1.3" ry="2"/>
	<ellipse class="st2" cx="17.7" cy="11.6" rx="1.3" ry="2"/>
	<ellipse class="st2" cx="17.7" cy="16.8" rx="1.3" ry="2"/>
</g>
</svg>
